<svg width="30" height="30" viewBox="0 0 30 30" fill="none" xmlns="http://www.w3.org/2000/svg">
<path d="M28.4234 4.11812C28.5897 4.28487 28.683 4.51072 28.683 4.74617C28.683 4.98162 28.5897 5.20746 28.4234 5.37421L26.5678 7.23166L23.0094 3.67333L24.8651 1.81588C25.0319 1.64911 25.2581 1.55542 25.494 1.55542C25.7299 1.55542 25.9561 1.64911 26.123 1.81588L28.4234 4.11634V4.11812ZM25.3099 8.48775L21.7516 4.92942L9.63009 17.0527C9.53217 17.1506 9.45846 17.27 9.41481 17.4014L7.98258 21.6963C7.95661 21.7746 7.95292 21.8586 7.97193 21.9388C7.99094 22.0191 8.03191 22.0925 8.09024 22.1509C8.14857 22.2092 8.22198 22.2501 8.30225 22.2692C8.38252 22.2882 8.4665 22.2845 8.5448 22.2585L12.8397 20.8263C12.9709 20.7831 13.0903 20.7101 13.1884 20.6128L25.3099 8.48953V8.48775Z" fill="#0FA958"/>
<path fill-rule="evenodd" clip-rule="evenodd" d="M2.62207 24.6851C2.62207 25.3929 2.90324 26.0717 3.40373 26.5722C3.90422 27.0727 4.58302 27.3539 5.29082 27.3539H24.8617C25.5694 27.3539 26.2483 27.0727 26.7487 26.5722C27.2492 26.0717 27.5304 25.3929 27.5304 24.6851V14.0101C27.5304 13.7742 27.4367 13.5479 27.2699 13.3811C27.103 13.2143 26.8768 13.1206 26.6408 13.1206C26.4049 13.1206 26.1786 13.2143 26.0118 13.3811C25.845 13.5479 25.7512 13.7742 25.7512 14.0101V24.6851C25.7512 24.9211 25.6575 25.1473 25.4907 25.3142C25.3239 25.481 25.0976 25.5747 24.8617 25.5747H5.29082C5.05489 25.5747 4.82862 25.481 4.66179 25.3142C4.49496 25.1473 4.40124 24.9211 4.40124 24.6851V5.11431C4.40124 4.87837 4.49496 4.65211 4.66179 4.48528C4.82862 4.31845 5.05489 4.22472 5.29082 4.22472H16.8554C17.0913 4.22472 17.3176 4.131 17.4844 3.96417C17.6513 3.79734 17.745 3.57107 17.745 3.33514C17.745 3.09921 17.6513 2.87294 17.4844 2.70611C17.3176 2.53928 17.0913 2.44556 16.8554 2.44556H5.29082C4.58302 2.44556 3.90422 2.72673 3.40373 3.22722C2.90324 3.7277 2.62207 4.40651 2.62207 5.11431V24.6851Z" fill="#0FA958"/>
</svg>
