<svg width="30" height="30" viewBox="0 0 30 30" fill="none" xmlns="http://www.w3.org/2000/svg">
<path d="M10.5844 6.0042V3.33368C10.5844 3.09774 10.6781 2.87147 10.8449 2.70464C11.0118 2.53782 11.238 2.44409 11.474 2.44409H18.5906C18.8266 2.44409 19.0528 2.53782 19.2197 2.70464C19.3865 2.87147 19.4802 3.09774 19.4802 3.33368V6.0042H26.5969C26.8328 6.0042 27.0591 6.09793 27.2259 6.26476C27.3927 6.43159 27.4865 6.65786 27.4865 6.89379C27.4865 7.12972 27.3927 7.35599 27.2259 7.52282C27.0591 7.68965 26.8328 7.78337 26.5969 7.78337H3.46771C3.23178 7.78337 3.00551 7.68965 2.83868 7.52282C2.67185 7.35599 2.57813 7.12972 2.57812 6.89379C2.57812 6.65786 2.67185 6.43159 2.83868 6.26476C3.00551 6.09793 3.23178 6.0042 3.46771 6.0042H10.5844ZM12.3635 6.0042H17.701V4.22504H12.3635V6.0042ZM6.13646 27.3542C5.90053 27.3542 5.67426 27.2605 5.50743 27.0937C5.3406 26.9268 5.24687 26.7006 5.24687 26.4646V7.78337H24.8177V26.4646C24.8177 26.7006 24.724 26.9268 24.5572 27.0937C24.3903 27.2605 24.1641 27.3542 23.9281 27.3542H6.13646ZM12.3635 22.0167C12.5995 22.0167 12.8257 21.923 12.9926 21.7562C13.1594 21.5893 13.2531 21.3631 13.2531 21.1271V12.2313C13.2531 11.9954 13.1594 11.7691 12.9926 11.6023C12.8257 11.4354 12.5995 11.3417 12.3635 11.3417C12.1276 11.3417 11.9013 11.4354 11.7345 11.6023C11.5677 11.7691 11.474 11.9954 11.474 12.2313V21.1271C11.474 21.3631 11.5677 21.5893 11.7345 21.7562C11.9013 21.923 12.1276 22.0167 12.3635 22.0167ZM17.701 22.0167C17.937 22.0167 18.1632 21.923 18.3301 21.7562C18.4969 21.5893 18.5906 21.3631 18.5906 21.1271V12.2313C18.5906 11.9954 18.4969 11.7691 18.3301 11.6023C18.1632 11.4354 17.937 11.3417 17.701 11.3417C17.4651 11.3417 17.2388 11.4354 17.072 11.6023C16.9052 11.7691 16.8115 11.9954 16.8115 12.2313V21.1271C16.8115 21.3631 16.9052 21.5893 17.072 21.7562C17.2388 21.923 17.4651 22.0167 17.701 22.0167Z" fill="#FF0000"/>
</svg>
